<?xml version="1.0" encoding="utf-8"?>
<!-- Generator: Adobe Illustrator 25.1.0, SVG Export Plug-In . SVG Version: 6.00 Build 0)  -->
<!DOCTYPE svg PUBLIC "-//W3C//DTD SVG 1.1//EN" "http://www.w3.org/Graphics/SVG/1.1/DTD/svg11.dtd" [
	<!ENTITY ns_extend "http://ns.adobe.com/Extensibility/1.0/">
	<!ENTITY ns_ai "http://ns.adobe.com/AdobeIllustrator/10.0/">
	<!ENTITY ns_graphs "http://ns.adobe.com/Graphs/1.0/">
	<!ENTITY ns_vars "http://ns.adobe.com/Variables/1.0/">
	<!ENTITY ns_imrep "http://ns.adobe.com/ImageReplacement/1.0/">
	<!ENTITY ns_sfw "http://ns.adobe.com/SaveForWeb/1.0/">
	<!ENTITY ns_custom "http://ns.adobe.com/GenericCustomNamespace/1.0/">
	<!ENTITY ns_adobe_xpath "http://ns.adobe.com/XPath/1.0/">
]>
<svg version="1.1" id="Layer_1" xmlns:x="&ns_extend;" xmlns:i="&ns_ai;" xmlns:graph="&ns_graphs;"
	 xmlns="http://www.w3.org/2000/svg" xmlns:xlink="http://www.w3.org/1999/xlink" x="0px" y="0px"
	 viewBox="0 0 708.661438 708.661438" style="enable-background:new 0 0 708.661438 708.661438;" xml:space="preserve">
<style type="text/css">
	.st0{fill:#FFFFFF;}
	.st1{fill:#EF4135;}
</style>
<metadata>
	<sfw  xmlns="&ns_sfw;">
		<slices></slices>
		<sliceSourceBounds  bottomLeftOrigin="true" height="708.661438" width="708.661438" x="212.544281" y="211.794281">
			</sliceSourceBounds>
	</sfw>
</metadata>
<g>
	<polygon class="st0" points="694.1386719,351.7461548 352.4846191,693.6463623 12.5535717,353.7153625 354.2076416,11.8151264 
		694.1386719,351.7461548 	"/>
	<polygon points="345.1001587,176.2423096 345.1001587,211.4415283 342.3925171,237.7794189 338.2080078,254.0252228 
		329.8389587,272.9786377 320.4852905,254.0252228 317.7776794,236.7948303 312.3623962,222.7643585 304.4856567,214.1491699 
		292.1782227,211.1953888 295.3781738,226.9488831 291.9320679,242.9485321 289.4706116,263.625 289.2244568,284.5476379 
		294.6397095,300.5472717 283.8091736,293.4089661 268.5479736,271.7478943 255.5021057,258.4559021 258.2097473,285.5322266 
		258.4559021,306.2086792 260.6712341,324.4236755 267.3172302,342.6386719 275.9324341,360.8536682 254.5175171,357.8998718 
		242.7023926,348.5462341 235.0717926,338.4541321 223.5028076,326.6390076 226.2104492,344.8540039 244.9177246,410.0833435 
		257.9635925,433.2213135 279.3785095,448.7286682 309.9009094,461.5283813 358.3921814,464.4821472 335.5003662,460.2976379 
		317.2853699,451.4362793 298.5780945,429.0367737 287.0091248,402.6988831 299.0703735,411.5602417 310.1470642,415.4986267 
		330.3312378,417.7139587 319.2545471,403.4373474 313.1008606,392.8529663 308.670166,379.8070984 311.6239624,367.2535095 
		312.116272,354.2076416 317.2853699,367.4996643 324.4236755,377.8378906 345.8385925,389.6530151 342.8848267,371.9303284 
		342.6386719,358.1460266 355.1922302,321.9621887 355.1922302,296.6089172 367.7458191,309.1624756 379.8070984,327.3774719 
		385.9607849,352.4846191 385.7146606,390.1453247 396.052887,379.5609436 414.0217285,367.4996643 420.1754456,353.7153625 
		420.1754456,379.8070984 413.5294189,399.4989624 405.8988342,410.0833435 397.7759094,417.960083 411.8063965,418.2062378 
		424.1138,414.7601624 438.3904114,405.6526794 423.621521,432.9751587 404.421936,451.9285889 393.3452454,460.2976379 
		385.4685059,464.728302 402.4527588,464.728302 420.9138794,461.5283813 440.1134644,452.1747437 458.574585,439.375 
		473.8357849,415.2524719 483.1894531,384.2377625 486.143219,339.9310303 482.6971436,355.6845398 470.882019,363.8074341 
		449.4671021,369.9611511 461.5283813,352.2384644 467.9282227,339.4387512 473.8357849,314.5777283 471.1281738,297.1011963 
		464.4821472,273.7171021 454.3900757,293.1628113 442.3287964,305.2240906 428.0521851,313.3469849 436.1750793,293.1628113 
		436.4212341,266.3326416 433.4674377,239.7486115 420.4215698,214.6414642 417.2216492,245.6561737 410.8217773,267.8095398 
		401.9604492,276.9170227 392.3606567,280.3630981 395.3144531,261.6558228 393.0990906,244.9177246 380.2993774,208.9800415 
		361.3459473,173.2885284 354.9460754,142.5199585 348.5462341,161.9656982 345.1001587,176.2423096 	"/>
	<polygon points="254.5175171,508.2966003 467.9282227,508.2966003 467.9282227,486.3893738 254.5175171,486.3893738 
		254.5175171,508.2966003 	"/>
	<path class="st1" d="M0,354.2076416L354.4537964,708.661438L708.661438,354.2076416L354.4537964,0L0,354.2076416L0,354.2076416z
		 M652.5396118,354.2076416L652.5396118,354.2076416L354.4537964,652.5396118l0,0L56.1218491,354.2076416l0,0
		L354.4537964,56.1218491l0,0L652.5396118,354.2076416L652.5396118,354.2076416L652.5396118,354.2076416z"/>
</g>
</svg>
