<?xml version="1.0" encoding="utf-8"?>
<!-- Generator: Adobe Illustrator 25.1.0, SVG Export Plug-In . SVG Version: 6.00 Build 0)  -->
<!DOCTYPE svg PUBLIC "-//W3C//DTD SVG 1.1//EN" "http://www.w3.org/Graphics/SVG/1.1/DTD/svg11.dtd" [
	<!ENTITY ns_extend "http://ns.adobe.com/Extensibility/1.0/">
	<!ENTITY ns_ai "http://ns.adobe.com/AdobeIllustrator/10.0/">
	<!ENTITY ns_graphs "http://ns.adobe.com/Graphs/1.0/">
	<!ENTITY ns_vars "http://ns.adobe.com/Variables/1.0/">
	<!ENTITY ns_imrep "http://ns.adobe.com/ImageReplacement/1.0/">
	<!ENTITY ns_sfw "http://ns.adobe.com/SaveForWeb/1.0/">
	<!ENTITY ns_custom "http://ns.adobe.com/GenericCustomNamespace/1.0/">
	<!ENTITY ns_adobe_xpath "http://ns.adobe.com/XPath/1.0/">
]>
<svg version="1.1" id="Layer_1" xmlns:x="&ns_extend;" xmlns:i="&ns_ai;" xmlns:graph="&ns_graphs;"
	 xmlns="http://www.w3.org/2000/svg" xmlns:xlink="http://www.w3.org/1999/xlink" x="0px" y="0px"
	 viewBox="0 0 708.661438 708.661438" style="enable-background:new 0 0 708.661438 708.661438;" xml:space="preserve">
<style type="text/css">
	.st0{fill:#FFFFFF;}
	.st1{fill:#EF4135;}
</style>
<metadata>
	<sfw  xmlns="&ns_sfw;">
		<slices></slices>
		<sliceSourceBounds  bottomLeftOrigin="true" height="708.661438" width="708.661438" x="212.169281" y="212.169281">
			</sliceSourceBounds>
	</sfw>
</metadata>
<g>
	<polygon class="st0" points="694.3907471,691.9542847 11.1380968,691.9542847 11.1380968,12.5303593 694.3907471,12.5303593 
		694.3907471,691.9542847 	"/>
	<polygon points="523.1425171,167.4195251 487.6398315,202.2260742 458.7503662,225.8945312 438.5625916,238.076828 
		411.0653992,248.5187988 420.8112488,220.3254852 435.4299927,200.4857483 443.7835693,180.9940796 444.4797058,164.2869415 
		435.0819092,149.3201141 422.5515747,168.1156616 403.059906,180.9940796 380.0875549,199.0934906 358.8555603,219.6293488 
		348.4136047,240.8613586 344.2368164,223.1100159 350.8500671,186.2150574 351.1981201,159.762085 326.8335266,189.3476562 
		306.2976685,210.2315826 290.2866516,230.7674561 278.8005066,255.4801025 269.054657,282.6292114 250.9552612,258.2646179 
		248.1707306,237.0326385 250.607193,219.2812958 250.9552612,195.9608917 235.2922974,216.8448334 188.999588,300.7286377 
		178.9056854,336.9274292 184.8227997,373.8223877 202.5741425,416.9825134 247.8226624,468.4962158 229.3751831,441.6951599 
		219.977417,414.197998 223.4580688,373.4743347 238.4248962,335.5351868 241.5574799,356.4190979 248.8668671,371.3859253 
		266.6181946,394.0101929 270.0988464,368.2533264 274.2756348,351.5462036 282.9772949,334.1429138 298.2921753,324.7451477 
		312.2147827,312.2147827 303.8612061,330.662262 300.7286377,348.0655518 310.4744568,381.4798279 325.0932007,360.5958862 
		338.6677551,346.3252258 387.3969421,323.0048218 412.8057251,297.5960388 412.8057251,322.6567688 406.8886108,352.938446 
		387.7450256,384.2643433 349.8058777,421.5073547 370.6897888,421.1593018 400.6234436,427.424469 420.4631653,419.7670288 
		394.3582458,445.8719482 368.2533264,458.7503662 350.1539307,461.5349121 333.7948608,461.5349121 347.7174683,475.805603 
		363.3804321,484.5072327 387.0488892,489.7282104 344.9329529,502.6066284 306.645752,502.2585754 287.1540833,499.4740601 
		274.6237183,495.9934082 291.6789246,513.048584 313.2589722,528.0154419 342.1484375,538.109314 373.1262512,543.6783447 
		412.8057251,534.6286621 453.1813354,513.048584 500.5182495,471.6288147 481.3746338,484.1591797 461.1868286,480.3304443 
		433.6896667,465.015564 463.275238,459.4465027 482.4188232,453.1813354 513.3966675,434.3858032 528.3634644,413.8499146 
		545.0706177,383.9162903 515.1370239,393.3140564 491.1204834,393.3140564 468.8442688,387.0488892 497.3856506,375.2146606 
		524.1867065,348.7616577 547.8551636,318.8280334 560.0374756,280.8888855 525.5789795,308.7341309 497.0375977,324.3970947 
		478.9381714,324.7451477 466.0597534,318.8280334 487.9878845,302.8170166 502.2585754,284.0214844 525.5789795,234.9442444 
		541.9380493,180.6460114 566.6506958,143.4029999 540.5457764,156.2814331 523.1425171,167.4195251 	"/>
	<polygon points="100.5909424,408.6289368 313.9551086,621.993103 335.5351868,600.0650024 122.5190735,386.7008057 
		100.5909424,408.6289368 	"/>
	<path class="st1" d="M0,0.3480655V708.661438h708.661438V0L0,0.3480655L0,0.3480655z M652.2748413,652.6228638
		L652.2748413,652.6228638H56.0385513l0,0V56.3866158l0,0h596.2362671l0,0V652.6228638L652.2748413,652.6228638
		L652.2748413,652.6228638z"/>
</g>
</svg>
